<svg xmlns="http://www.w3.org/2000/svg" viewBox="0 0 378.44 55.738"><path fill="currentColor" d="M18.757 18.194a18.715 18.715 0 0 0-13.266 5.497A18.713 18.713 0 0 0 0 36.958v17.135h14.237V37.246c.006-2.054.495-3.807 1.327-5.165.84-1.34 1.922-2.135 3.193-2.142 1.271.007 2.354.802 3.193 2.142.833 1.358 1.321 3.111 1.327 5.165v16.847h14.244V36.958c0-5.165-2.117-9.898-5.497-13.267a18.715 18.715 0 0 0-13.267-5.497m340.92 0a18.715 18.715 0 0 0-13.266 5.497 18.713 18.713 0 0 0-5.491 13.267v17.135h14.237V37.246c.006-2.054.494-3.807 1.327-5.165.84-1.34 1.922-2.135 3.193-2.142 1.271.007 2.354.802 3.193 2.142.833 1.358 1.321 3.111 1.327 5.165v16.847h14.243V36.958c0-5.165-2.116-9.898-5.496-13.267a18.715 18.715 0 0 0-13.267-5.497M52.845 13.583a7.887 7.887 0 0 0 2.316-5.597c0-2.192-.882-4.17-2.316-5.598A7.893 7.893 0 0 0 47.248.066a7.893 7.893 0 0 0-5.597 2.322 7.87 7.87 0 0 0-2.323 5.598c0 2.185.89 4.163 2.323 5.597l1.747 1.746c2.917 2.924 3.124 3.694.35 6.468l-1.59 1.59a7.198 7.198 0 0 0-2.11 5.096V54.09h14.393V28.483c0-1.99-.8-3.788-2.103-5.096l-1.59-1.584c-2.774-2.774-2.567-3.55.35-6.474zM78.358 42.94c-.839 1.546-1.928 2.467-3.193 2.473-1.27-.006-2.36-.927-3.2-2.473-.826-1.565-1.32-3.594-1.32-5.966 0-2.373.494-4.395 1.32-5.967.84-1.546 1.93-2.467 3.2-2.473 1.265.006 2.354.927 3.193 2.473.614 1.165 1.04 2.58 1.22 4.201h14.263a18.758 18.758 0 0 0-18.676-16.998A18.73 18.73 0 0 0 61.9 23.708a18.715 18.715 0 0 0-5.497 13.267 18.715 18.715 0 0 0 5.497 13.266c2.598 2.598 7.118 5.497 13.266 5.497 4.614 0 8.89-1.697 12.158-4.476 2.38-2.023 5.91-6.08 6.518-12.522H79.579c-.182 1.622-.607 3.037-1.22 4.201m65.99-9.345c.257-1.096.601-2.06.94-2.78.632-1.359 1.921-2.467 3.192-2.473 1.284.006 2.33.914 3.218 2.523.389.695.733 1.903.902 2.705l-8.252.025zm4.132-15.414a18.735 18.735 0 0 0-13.266 5.49 18.767 18.767 0 0 0 0 26.54c3.287 3.287 7.938 5.49 13.348 5.49 5.572 0 10.186-2.485 13.298-5.61 3.919-4.494 4.107-9.303 4.107-9.303H153.27s-1.76 4.433-4.79 4.433c-1.27-.006-2.354-.92-3.193-2.473-.57-1.07-.976-2.367-1.177-3.832h22.107s1.515-9.021-4.533-15.126c-3.512-3.556-7.988-5.615-13.204-5.61m129.183 15.415c.257-1.096.601-2.06.94-2.78.631-1.359 1.921-2.467 3.192-2.473 1.284.006 2.33.914 3.218 2.523.388.695.733 1.903.902 2.705l-8.252.025zm4.132-15.414a18.735 18.735 0 0 0-13.266 5.49 18.767 18.767 0 0 0 0 26.54c3.286 3.287 7.938 5.49 13.347 5.49 5.573 0 10.18-2.485 13.298-5.61 3.92-4.494 4.107-9.303 4.107-9.303h-12.696s-1.76 4.433-4.79 4.433c-1.27-.006-2.354-.92-3.193-2.473-.57-1.07-.977-2.367-1.177-3.832h22.107s1.515-9.021-4.533-15.126c-3.512-3.556-7.989-5.615-13.204-5.61M175.364 0c-3.931 0-7.118 3.193-7.118 7.125l.019 46.961h14.243l-.019-46.968c0-3.931-3.193-7.118-7.125-7.118m27.87 45.405c-2.492 0-4.52-3.782-4.52-8.452 0-4.665 2.028-8.446 4.52-8.446 2.498 0 4.52 3.781 4.52 8.446 0 4.67-2.022 8.452-4.52 8.452m0-27.21c-10.362 0-18.763 8.396-18.763 18.758 0 10.361 8.401 18.763 18.763 18.763s18.763-8.402 18.763-18.763c0-10.362-8.402-18.757-18.763-18.757m117.16 27.209c-2.492 0-4.52-3.782-4.52-8.452 0-4.665 2.028-8.446 4.52-8.446s4.52 3.781 4.52 8.446c0 4.67-2.028 8.452-4.52 8.452m0-27.21c-10.361 0-18.763 8.396-18.763 18.758 0 10.361 8.402 18.763 18.763 18.763s18.764-8.402 18.764-18.763c0-10.362-8.402-18.757-18.764-18.757m-77.928 27.209c-2.492 0-4.52-3.782-4.52-8.452 0-4.665 2.028-8.446 4.52-8.446 2.498 0 4.52 3.781 4.52 8.446 0 4.67-2.022 8.452-4.52 8.452m18.757-8.446.031.012-.019-29.857c-.006-3.932-3.193-7.118-7.124-7.112-3.932 0-7.119 3.193-7.119 7.125l.006 11.645a18.725 18.725 0 0 0-4.533-.558 18.715 18.715 0 0 0-13.266 5.497 18.72 18.72 0 0 0-5.49 13.26 18.725 18.725 0 0 0 5.49 13.267c2.16 2.172 6.799 5.503 13.266 5.497 6.474.006 11.107-3.325 13.267-5.497a18.756 18.756 0 0 0 5.497-13.267c0-.006-.006-.012-.006-.012"/><path fill="currentColor" d="M131.786 51.602c0-.476-.144-.92-.376-1.296l-7.8-11.795 5.402-9.804a7.122 7.122 0 1 0-12.271-7.231l-6.448 11.526v-7.689a7.118 7.118 0 0 0-7.119-7.118c-3.931 0-7.124 3.187-7.124 7.118v28.781h14.243v-11.27l7.513 11.264 11.5-.007a2.477 2.477 0 0 0 2.48-2.479"/></svg>