<svg fill="none" xmlns="http://www.w3.org/2000/svg" viewBox="0 0 300 100"><path d="M86.663 35.333c0-10.444-10.89-15.333-24-15.333-13.778 0-26.667 6.222-31.334 15.778-1.333 2.444-2 5.333-2 8.222 0 2.444.667 4.889 2 6.889 2 2.889 5.556 4.889 10.89 4.889 6.444 0 11.555-3.556 11.555-9.778 0 0 0-1.778-2-1.778-1.556 0-2 1.111-2 1.778.222 4.889-2.667 8.667-7.778 8.667-5.778 0-8.222-4.89-8.222-10 0-10.667 8-17.778 16.444-20.89 4-1.555 8-2.221 12.222-2.221 9.556 0 17.334 3.555 17.334 13.333 0 8.222-6.889 15.111-15.111 15.778l.444-1.111c1.778-6 3.778-12.445 7.111-17.334.222-.222.445-.666.89-1.333l-.445-.667-2 1.334C54.885 43.778 54.44 78.222 33.552 78.222c-.667 0-1.334 0-2.223-.222-4.444-.667-6.666-3.556-6.666-7.778 0-.889.222-2 .222-2.444 0-1.111-.89-2.222-2-2.222h-.222c-1.778 0-2.667 1.555-2.667 3.555-.222 6 4.444 9.556 11.333 10.222h2.445c16.222 0 26.222-12.222 30.666-27.333 2.223-.222 4.223-.667 6.445-1.333 7.333-1.334 15.778-6.445 15.778-15.334ZM242.222 38.889h-5.778L235.111 42l-2.222 5.111h-2.667l-.889 1.778H232L228.888 56c-2.444 5.111-6.222 10.222-8.222 10.222-.444 0-.666-.222-.666-.666 0-.445.222-.89.666-2.223.667-1.555 1.778-3.777 2.667-5.555 1.111-2.445 3.111-6.222 3.111-8 0-1.778-1.111-3.334-3.556-3.334-2.666 0-5.111 1.556-7.333 3.778l1.333-3.333h-5.333l-4.444 10c-1.778 3.555-5.334 9.333-7.556 9.333-.444 0-.667-.222-.667-.666 0-.445.223-.89.445-1.334.222-.444 2.889-6.666 2.889-6.666l4.889-10.89h-5.778l-4.667 10.667c-1.333 3.334-5.111 8.89-7.333 8.89-.445 0-.667-.223-.889-.667v-.223c0-.666.444-1.555.667-2.444l2-5.111 5.111-10.89h-5.778l-1.111 2.445c-.889 1.778-2.222 3.556-4.667 3.556-1.111 0-1.555-.445-1.778-.889-.444-3.778-2.666-5.556-6.222-5.556-4.889 0-8.222 2.89-10.444 6.223-1.556 2.444-2.667 4.889-3.556 7.555-2 3.334-4.222 6-6 6-.444 0-.667-.222-.667-.889 0-.666.667-1.777.667-2.444l3.778-8c1.111-2.445 1.778-4 1.778-5.778 0-1.778-1.112-2.889-3.112-2.889-2.666 0-5.777 1.556-8 4.222v-1.333c0-2-.888-2.889-2.888-2.889-2.445 0-5.112 1.556-7.334 4.222l1.556-3.777h-5.334l-4.444 10c-2 4.666-5.556 9.333-7.333 9.333-.445 0-.667-.222-.667-.889 0-.889 1.111-3.111 1.333-4l6-13.333c.445-1.111-2.444-1.556-6-1.556-3.778 0-7.555 1.778-10.222 4.222-2 1.556-3.333 2.445-4.222 2.445-.445 0-.445-.222-.445-.445 0-.888 2-3.11 2-4.888 0-.89-.444-1.334-1.555-1.334-2 0-4.667 2-6.445 4l1.556-3.778h-5.111l-4.445 10c-2 4.667-5.555 9.556-7.555 9.556-.445 0-.667-.222-.667-.889 0-.889.889-3.111 1.555-4.222l6-13.333C96.889 46.444 94 46 90.444 46 85.11 46 80 49.556 77.334 53.333c-3.112 4-5.112 8.223-5.112 11.556 0 2.667 1.334 4.444 4.222 4.444 3.112 0 5.778-2.444 7.334-4.444 0 .444-.222.667-.222 1.111 0 2 .666 3.333 3.11 3.333 2 0 4.89-1.777 6.89-4.444l-1.778 4h5.555l5.556-12.445c1.778-4 3.778-6.222 4.444-6.222.223 0 .223 0 .223.222 0 .445-.889 1.556-.889 2.667 0 1.111.666 1.778 2 1.778 1.111 0 2.444-.667 3.778-1.333-2.889 3.777-4.667 7.777-4.667 11.11 0 2.667 1.333 4.445 4.222 4.445 3.111 0 5.778-2.889 7.334-4.667v1.334c0 1.778 1.111 3.333 3.111 3.333 2.444 0 4.222-1.555 6.666-4.444l-1.777 4h5.777l5.334-12c2.222-5.111 5.333-8 6.889-8 .444 0 .666.222.666.666v.223c0 .666-.222 1.11-.444 1.777l-7.556 17.334h5.778l5.333-12.223c2.223-5.11 4.889-7.777 6.667-7.777.667 0 .889.222.889.889 0 .666-.222 1.333-.444 2l-5.112 12c-.444 1.11-.666 2.222-.888 3.333 0 1.778.888 3.111 3.555 3.111 3.333 0 5.778-2.444 8.667-6.222v.666c.222 3.112 2 5.556 6.444 5.556 5.334 0 9.556-3.556 12-9.333.889-2 1.556-4.223 1.778-6.445.667.222 1.333.445 1.778.445.889 0 1.778-.223 2.444-.667l-.889 2c-1.111 2.222-2.222 4.667-3.111 6.667-.666 1.11-.889 2.444-1.111 3.777 0 2 1.111 3.556 3.556 3.556 2.444 0 5.555-2.222 7.778-5.333.222.666.222 1.333.222 2 0 1.777.444 3.333 2.889 3.333 2.666 0 4.889-2 7.111-4.444l-1.778 4h5.778L212 59.11c2.666-6 5.333-9.555 7.777-9.555.445 0 .667.222.889.666v.222c0 1.112-1.333 3.778-2.666 6.445-1.112 2.444-2 4.444-2.667 5.778-.667 1.333-.889 2.666-1.111 4 0 1.777 1.111 3.11 3.333 3.11 3.333 0 6.667-3.333 8.667-5.777-.445 1.111-.667 2.444-.667 3.556 0 3.333 2 5.11 4.889 5.11 1.778 0 3.778-.666 5.111-1.777 2.222-1.556 4-3.778 5.556-6L240 64c-1.334 2-2.889 3.778-4.445 4.889-.889.667-1.778 1.111-2.889 1.111-1.111 0-2-.667-2-2.222 0-1.556.667-3.556 1.778-6.445 0 0 1.556-3.555 3.111-6.889 1.334-2.888 2.445-5.555 2.667-6.222H242l.666-1.778h-3.777l3.333-7.555ZM78.888 66.444c-.889 0-1.333-.222-1.333-1.333 0-2.889 2.444-7.778 5.333-11.778 2-2.666 4.667-4.889 7.555-4.889l-3.555 8.223c-2.889 6-5.778 9.777-8 9.777Zm35.778 0c-.889 0-1.333-.222-1.333-1.333 0-2.889 2.444-7.778 5.333-11.778 2-2.666 4.667-4.889 7.555-4.889l-3.555 8.223c-2.889 6.222-5.778 9.777-8 9.777Zm63.556-15.777c-.223 3.11-2.889 10.666-6 15.11-1.334 1.779-2.445 2.445-3.334 2.445-1.333 0-1.778-1.11-1.555-2.666.222-2.89 2.666-9.334 5.778-14 1.555-2 2.444-2.89 3.555-2.89 1.333-.222 1.556.667 1.556 2ZM267.554 46.889l5.333-12.222h-6.222l-5.334 12.222h-13.333l-2.222 5.11h13.333l-5.333 12.223h6.222L265.331 52h13.334l2.222-5.111h-13.333Z" fill="currentColor"/></svg>