<svg xmlns="http://www.w3.org/2000/svg" viewBox="0 0 1280 225.28" fill="currentColor"><path d="M456.013 225.28c-46.413 0-89.42-13.824-118.093-39.603a96.896 96.896 0 0 1-32.128-73.19 98.33 98.33 0 0 1 32.128-72.935C364.544 15.36 411.648 0 456.013 0c49.075 0 88.371 12.365 118.4 39.603a97.408 97.408 0 0 1 31.693 72.883 101.53 101.53 0 0 1-31.693 73.19c-27.98 25.934-71.91 39.604-118.4 39.604v-29.645c24.602 0 47.437-8.499 63.385-24.371 15.95-15.872 23.194-35.123 23.194-58.88 0-22.682-7.962-43.878-23.194-58.88-15.744-15.488-39.116-24.218-63.385-24.218s-47.744 8.653-63.488 24.218c-15.18 15.027-23.04 36.3-23.04 58.88a82.355 82.355 0 0 0 23.04 58.88c15.744 15.693 39.066 24.371 63.488 24.371zM117.12 0c-24.806 0-52.992 4.66-76.8 15.36C18.1 25.293 0 41.242 0 67.686a54.22 54.22 0 0 0 14.72 37.274c6.426 5.94 16.794 16.026 43.879 21.965 12.108 2.56 37.99 6.681 63.77 9.395 25.778 2.714 50.764 5.12 61.004 7.86 8.14 2.073 21.837 4.889 21.837 20.249s-14.413 19.968-16.922 20.966c-2.509.999-19.814 8.935-50.893 8.935A216.422 216.422 0 0 1 76.8 183.91c-11.597-4.147-23.757-9.6-35.097-23.45a40.269 40.269 0 0 1-7.296-22.22H6.247v78.848H37.53v-10.675a4.454 4.454 0 0 1 6.758-3.84 246.426 246.426 0 0 0 45.773 14.797c16.435 3.43 27.06 5.913 47.488 5.913a202.624 202.624 0 0 0 63.642-8.985A111.078 111.078 0 0 0 239 195.635a51.814 51.814 0 0 0 20.25-41.497 58.06 58.06 0 0 0-16.358-40.807 72.013 72.013 0 0 0-20.173-13.798 148.608 148.608 0 0 0-24.883-8.679c-16.23-3.968-52.685-8.934-70.118-10.675-18.279-1.894-49.997-4.531-62.67-8.448-3.84-1.203-11.673-4.915-11.673-14.003 0-6.477 3.584-11.955 10.65-16.384 11.238-7.04 33.92-11.418 57.574-11.418a166.989 166.989 0 0 1 66.714 13.03 72.858 72.858 0 0 1 15.872 9.473 47.718 47.718 0 0 1 15.641 26.163h25.268V9.958h-28.16v7.962c0 2.56-2.56 5.94-7.68 3.149C196.557 14.464 160.87.179 117.12 0Zm618.214 12.595L872.96 136.781l-1.408-83.61c-.154-10.982-2.15-15.565-14.029-15.565h-25.856v-25.01h117.76v25.01H924.16c-12.083 0-12.8 3.892-13.005 15.565l2.125 159.77h-40.32L714.42 71.475v100.378c.127 10.931.64 16.077 11.878 16.077h28.16v25.01h-115.43v-25.01h27.033c10.086 0 9.677-9.626 9.677-16.64V54.118c0-7.68-1.076-16.486-16.896-16.486h-21.914V12.595Zm348.442 175.283a55.86 55.86 0 0 0 6.963-.435 8.627 8.627 0 0 0 5.427-4.813 28.006 28.006 0 0 0 .538-5.401v-39.552c0-1.331 0-1.357-1.69-3.456-1.69-2.1-72.09-81.92-75.29-85.504-3.993-4.352-11.007-11.085-21.682-11.085h-24.448V12.595h137.984v24.986h-16.64c-3.84 0-6.4 3.66-3.124 7.68 0 0 46.439 55.552 46.874 56.14.435.59.82.717 1.408.18.589-.538 47.59-55.808 47.949-56.32a4.787 4.787 0 0 0-4.096-7.68h-17.075V12.595H1280v25.037h-25.267c-9.165 0-12.8 1.69-19.789 9.472l-76.16 86.886a5.376 5.376 0 0 0-.922 3.687v39.526a28.16 28.16 0 0 0 .564 5.402 8.525 8.525 0 0 0 5.401 4.813 50.611 50.611 0 0 0 6.912.435h25.83v25.037h-137.267v-25.037z" style="stroke-width:2.56"/></svg>