<svg width="76" height="48" viewBox="0 0 76 48" fill="none" xmlns="http://www.w3.org/2000/svg" class="text-text-primary" data-sentry-element="svg" data-sentry-source-file="QuoteIcon.tsx" data-sentry-component="QuoteIcon"><path d="M26.3594 1.9873L26.5859 3.97461C16.3716 5.14184 7.98187 12.3775 5.08594 22.0117C8.05221 16.3156 14.192 13.5938 20.0732 13.5938C26.6123 13.594 33.4708 16.9585 35.9316 24.0352C36.6208 26.0171 37.0029 28.111 37.0029 30.2178C37.0029 40.1218 28.634 48.0007 18.501 48.001C8.36798 48.0007 0 40.1218 0 30.2178V29.4287C7.98507e-05 14.2206 11.4178 1.68138 26.1318 0L26.3594 1.9873ZM65.3535 1.9873L65.5801 3.97461C55.3657 5.14184 46.976 12.3774 44.0801 22.0117C47.0463 16.3154 53.186 13.5938 59.0674 13.5938C65.6065 13.5938 72.4649 16.9584 74.9258 24.0352C75.615 26.0171 75.9971 28.111 75.9971 30.2178C75.9971 40.122 67.6283 48.001 57.4951 48.001C47.3621 48.0007 38.9941 40.1218 38.9941 30.2178V29.4287C38.9942 14.2206 50.4119 1.68138 65.126 0L65.3535 1.9873Z" fill="#141414" data-sentry-element="path" data-sentry-source-file="QuoteIcon.tsx"></path></svg>